{
  "accessors": [
    {
      "bufferView": 2,
      "componentType": 5126,
      "count": 2518,
      "max": [
        46.692848205566406,
        9.4500026702880859,
        32.852447509765625
      ],
      "min": [
        -4.9539284706115723,
        -11.072651863098145,
        26.322135925292969
      ],
      "type": "VEC3"
    },
    {
      "bufferView": 2,
      "byteOffset": 30216,
      "componentType": 5126,
      "count": 2518,
      "max": [
        1,
        1,
        1
      ],
      "min": [
        -1,
        -1,
        -1
      ],
      "type": "VEC3"
    },
    {
      "bufferView": 3,
      "componentType": 5126,
      "count": 2518,
      "max": [
        1,
        1,
        1,
        1
      ],
      "min": [
        -0.99996268749237061,
        -0.99998480081558228,
        -1,
        -1
      ],
      "type": "VEC4"
    },
    {
      "bufferView": 1,
      "componentType": 5126,
      "count": 2518,
      "max": [
        1.0023647546768188,
        0.99000000953674316
      ],
      "min": [
        0.0099999997764825821,
        0.0099999997764825821
      ],
      "type": "VEC2"
    },
    {
      "bufferView": 0,
      "componentType": 5125,
      "count": 4206,
      "max": [
        2517
      ],
      "min": [
        0
      ],
      "type": "SCALAR"
    },
    {
      "bufferView": 2,
      "byteOffset": 60432,
      "componentType": 5126,
      "count": 2997,
      "max": [
        15.110451698303223,
        9.5724039077758789,
        32.349319458007812
      ],
      "min": [
        -61.51324462890625,
        -12.182842254638672,
        26.825263977050781
      ],
      "type": "VEC3"
    },
    {
      "bufferView": 2,
      "byteOffset": 96396,
      "componentType": 5126,
      "count": 2997,
      "max": [
        1,
        1,
        1
      ],
      "min": [
        -0.97989624738693237,
        -1,
        -1
      ],
      "type": "VEC3"
    },
    {
      "bufferView": 3,
      "byteOffset": 40288,
      "componentType": 5126,
      "count": 2997,
      "max": [
        0.99991583824157715,
        0.99999845027923584,
        1,
        1
      ],
      "min": [
        -0.99998611211776733,
        -1,
        -1,
        -1
      ],
      "type": "VEC4"
    },
    {
      "bufferView": 1,
      "byteOffset": 20144,
      "componentType": 5126,
      "count": 2997,
      "max": [
        1.0681350231170654,
        1.4210038185119629
      ],
      "min": [
        0.0099999997764825821,
        -0.14754271507263184
      ],
      "type": "VEC2"
    },
    {
      "bufferView": 0,
      "byteOffset": 16824,
      "componentType": 5125,
      "count": 4680,
      "max": [
        2996
      ],
      "min": [
        0
      ],
      "type": "SCALAR"
    },
    {
      "bufferView": 2,
      "byteOffset": 132360,
      "componentType": 5126,
      "count": 114,
      "max": [
        32.515357971191406,
        2.053551197052002,
        31.156463623046875
      ],
      "min": [
        14.040077209472656,
        -3.8201868534088135,
        28.018119812011719
      ],
      "type": "VEC3"
    },
    {
      "bufferView": 2,
      "byteOffset": 133728,
      "componentType": 5126,
      "count": 114,
      "max": [
        0.26868084073066711,
        0.99946260452270508,
        0.99997591972351074
      ],
      "min": [
        -0.26756611466407776,
        -0.99990749359130859,
        -0.99997591972351074
      ],
      "type": "VEC3"
    },
    {
      "bufferView": 3,
      "byteOffset": 88240,
      "componentType": 5126,
      "count": 114,
      "max": [
        0.99994444847106934,
        0.26756614446640015,
        0.043041910976171494,
        1
      ],
      "min": [
        -1,
        -0.26868081092834473,
        -0.043041899800300598,
        -1
      ],
      "type": "VEC4"
    },
    {
      "bufferView": 1,
      "byteOffset": 44120,
      "componentType": 5126,
      "count": 114,
      "max": [
        0.99000000953674316,
        0.54014724493026733
      ],
      "min": [
        0.0099999997764825821,
        0.0099999997764825821
      ],
      "type": "VEC2"
    },
    {
      "bufferView": 0,
      "byteOffset": 35544,
      "componentType": 5125,
      "count": 438,
      "max": [
        113
      ],
      "min": [
        0
      ],
      "type": "SCALAR"
    },
    {
      "bufferView": 2,
      "byteOffset": 135096,
      "componentType": 5126,
      "count": 330,
      "max": [
        0.61723035573959351,
        1.5314093828201294,
        30.852460861206055
      ],
      "min": [
        -61.004554748535156,
        -7.2894372940063477,
        28.322122573852539
      ],
      "type": "VEC3"
    },
    {
      "bufferView": 2,
      "byteOffset": 139056,
      "componentType": 5126,
      "count": 330,
      "max": [
        1.678757541867526e-07,
        0.07104114443063736,
        1
      ],
      "min": [
        -0.15229715406894684,
        -0.096222318708896637,
        -1
      ],
      "type": "VEC3"
    },
    {
      "bufferView": 3,
      "byteOffset": 90064,
      "componentType": 5126,
      "count": 330,
      "max": [
        0.30562734603881836,
        0.95215117931365967,
        0.15237925946712494,
        1
      ],
      "min": [
        -1,
        -0.0017938058590516448,
        -0.15237925946712494,
        -1
      ],
      "type": "VEC4"
    },
    {
      "bufferView": 1,
      "byteOffset": 45032,
      "componentType": 5126,
      "count": 330,
      "max": [
        4.2427678108215332,
        1.4533357620239258
      ],
      "min": [
        -1.9324089288711548,
        0.00024098902940750122
      ],
      "type": "VEC2"
    },
    {
      "bufferView": 0,
      "byteOffset": 37296,
      "componentType": 5125,
      "count": 678,
      "max": [
        329
      ],
      "min": [
        0
      ],
      "type": "SCALAR"
    },
    {
      "bufferView": 2,
      "byteOffset": 143016,
      "componentType": 5126,
      "count": 844,
      "max": [
        46.692848205566406,
        4.987490177154541,
        32.852443695068359
      ],
      "min": [
        -4.9539284706115723,
        -4.8703727722167969,
        26.322139739990234
      ],
      "type": "VEC3"
    },
    {
      "bufferView": 2,
      "byteOffset": 153144,
      "componentType": 5126,
      "count": 844,
      "max": [
        0.99654585123062134,
        1,
        1
      ],
      "min": [
        -0.965465247631073,
        -0.99535208940505981,
        -1
      ],
      "type": "VEC3"
    },
    {
      "bufferView": 3,
      "byteOffset": 95344,
      "componentType": 5126,
      "count": 844,
      "max": [
        1,
        1,
        1,
        1
      ],
      "min": [
        -1,
        -0.99719619750976562,
        -1,
        -1
      ],
      "type": "VEC4"
    },
    {
      "bufferView": 1,
      "byteOffset": 47672,
      "componentType": 5126,
      "count": 844,
      "max": [
        0.99000000953674316,
        0.95163559913635254
      ],
      "min": [
        0.0099999997764825821,
        0.0099999997764825821
      ],
      "type": "VEC2"
    },
    {
      "bufferView": 0,
      "byteOffset": 40008,
      "componentType": 5125,
      "count": 1296,
      "max": [
        843
      ],
      "min": [
        0
      ],
      "type": "SCALAR"
    },
    {
      "bufferView": 2,
      "byteOffset": 163272,
      "componentType": 5126,
      "count": 8,
      "max": [
        9.6692848205566406,
        3.3032352924346924,
        30.852443695068359
      ],
      "min": [
        9.1312141418457031,
        3.0625486373901367,
        28.322139739990234
      ],
      "type": "VEC3"
    },
    {
      "bufferView": 2,
      "byteOffset": 163368,
      "componentType": 5126,
      "count": 8,
      "max": [
        0.19727949798107147,
        -0.88776117563247681,
        0.4158858060836792
      ],
      "min": [
        0.19727945327758789,
        -0.88776123523712158,
        -0.41588577628135681
      ],
      "type": "VEC3"
    },
    {
      "bufferView": 3,
      "byteOffset": 108848,
      "componentType": 5126,
      "count": 8,
      "max": [
        0,
        0,
        0,
        1
      ],
      "min": [
        0,
        0,
        0,
        1
      ],
      "type": "VEC4"
    },
    {
      "bufferView": 0,
      "byteOffset": 45192,
      "componentType": 5125,
      "count": 12,
      "max": [
        7
      ],
      "min": [
        0
      ],
      "type": "SCALAR"
    }
  ],
  "asset": {
    "extras": {
      "author": "freddrabzzzLDE (https://sketchfab.com/freddrabzzzLDE)",
      "license": "CC-BY-4.0 (http://creativecommons.org/licenses/by/4.0/)",
      "source": "https://sketchfab.com/models/304e2df34e024c9ab19226d326f56ed9",
      "title": "Dragon Sword 2"
    },
    "generator": "Sketchfab-3.20.7",
    "version": "2.0"
  },
  "bufferViews": [
    {
      "buffer": 0,
      "byteLength": 45240,
      "byteOffset": 0,
      "name": "floatBufferViews",
      "target": 34963
    },
    {
      "buffer": 0,
      "byteLength": 54424,
      "byteOffset": 45240,
      "byteStride": 8,
      "name": "floatBufferViews",
      "target": 34962
    },
    {
      "buffer": 0,
      "byteLength": 163464,
      "byteOffset": 99664,
      "byteStride": 12,
      "name": "floatBufferViews",
      "target": 34962
    },
    {
      "buffer": 0,
      "byteLength": 108976,
      "byteOffset": 263128,
      "byteStride": 16,
      "name": "floatBufferViews",
      "target": 34962
    }
  ],
  "buffers": [
    {
      "byteLength": 372104,
      "uri": "scene.bin"
    }
  ],
  "images": [
    {
      "uri": "textures/Material_278_baseColor.jpg"
    },
    {
      "uri": "textures/Material_106_baseColor.jpg"
    },
    {
      "uri": "textures/Material_106_emissive.jpg"
    },
    {
      "uri": "textures/Material_107_baseColor.jpg"
    },
    {
      "uri": "textures/Material_253_baseColor.jpg"
    },
    {
      "uri": "textures/Material_253_emissive.jpg"
    },
    {
      "uri": "textures/Material_130_baseColor.jpg"
    }
  ],
  "materials": [
    {
      "doubleSided": true,
      "emissiveFactor": [
        0,
        0,
        0
      ],
      "name": "Material_107",
      "pbrMetallicRoughness": {
        "baseColorFactor": [
          1,
          1,
          1,
          1
        ],
        "baseColorTexture": {
          "index": 3,
          "texCoord": 0
        },
        "metallicFactor": 1,
        "roughnessFactor": 0.077553353700000049
      }
    },
    {
      "doubleSided": true,
      "emissiveFactor": [
        0.74885670729999998,
        0.74885670729999998,
        0.74885670729999998
      ],
      "emissiveTexture": {
        "index": 2,
        "texCoord": 0
      },
      "name": "Material_106",
      "pbrMetallicRoughness": {
        "baseColorFactor": [
          1,
          1,
          1,
          1
        ],
        "baseColorTexture": {
          "index": 1,
          "texCoord": 0
        },
        "metallicFactor": 1,
        "roughnessFactor": 0
      }
    },
    {
      "doubleSided": true,
      "emissiveFactor": [
        0,
        0,
        0
      ],
      "name": "Material_130",
      "pbrMetallicRoughness": {
        "baseColorFactor": [
          1,
          1,
          1,
          1
        ],
        "baseColorTexture": {
          "index": 6,
          "texCoord": 0
        },
        "metallicFactor": 0.41025152440000001,
        "roughnessFactor": 0.18730945119999998
      }
    },
    {
      "doubleSided": true,
      "emissiveFactor": [
        0,
        0,
        0
      ],
      "name": "Material_278",
      "pbrMetallicRoughness": {
        "baseColorFactor": [
          1,
          1,
          1,
          1
        ],
        "baseColorTexture": {
          "index": 0,
          "texCoord": 0
        },
        "metallicFactor": 1,
        "roughnessFactor": 0
      }
    },
    {
      "doubleSided": true,
      "emissiveFactor": [
        1,
        1,
        1
      ],
      "emissiveTexture": {
        "index": 5,
        "texCoord": 0
      },
      "name": "Material_253",
      "pbrMetallicRoughness": {
        "baseColorFactor": [
          1,
          1,
          1,
          1
        ],
        "baseColorTexture": {
          "index": 4,
          "texCoord": 0
        },
        "metallicFactor": 1,
        "roughnessFactor": 0
      }
    },
    {
      "doubleSided": true,
      "emissiveFactor": [
        0,
        0,
        0
      ],
      "name": "Material_26",
      "pbrMetallicRoughness": {
        "baseColorFactor": [
          0.58799999999999997,
          0.58799999999999997,
          0.58799999999999997,
          1
        ],
        "metallicFactor": 0,
        "roughnessFactor": 0.89297135959999996
      }
    }
  ],
  "meshes": [
    {
      "name": "_Material #107_0",
      "primitives": [
        {
          "attributes": {
            "NORMAL": 1,
            "POSITION": 0,
            "TANGENT": 2,
            "TEXCOORD_0": 3
          },
          "indices": 4,
          "material": 0,
          "mode": 4
        }
      ]
    },
    {
      "name": "_Material #106_0",
      "primitives": [
        {
          "attributes": {
            "NORMAL": 6,
            "POSITION": 5,
            "TANGENT": 7,
            "TEXCOORD_0": 8
          },
          "indices": 9,
          "material": 1,
          "mode": 4
        }
      ]
    },
    {
      "name": "_Material #130_0",
      "primitives": [
        {
          "attributes": {
            "NORMAL": 11,
            "POSITION": 10,
            "TANGENT": 12,
            "TEXCOORD_0": 13
          },
          "indices": 14,
          "material": 2,
          "mode": 4
        }
      ]
    },
    {
      "name": "_Material #278_0",
      "primitives": [
        {
          "attributes": {
            "NORMAL": 16,
            "POSITION": 15,
            "TANGENT": 17,
            "TEXCOORD_0": 18
          },
          "indices": 19,
          "material": 3,
          "mode": 4
        }
      ]
    },
    {
      "name": "_Material #253_0",
      "primitives": [
        {
          "attributes": {
            "NORMAL": 21,
            "POSITION": 20,
            "TANGENT": 22,
            "TEXCOORD_0": 23
          },
          "indices": 24,
          "material": 4,
          "mode": 4
        }
      ]
    },
    {
      "name": "_Material #26_0",
      "primitives": [
        {
          "attributes": {
            "NORMAL": 26,
            "POSITION": 25,
            "TANGENT": 27
          },
          "indices": 28,
          "material": 5,
          "mode": 4
        }
      ]
    }
  ],
  "nodes": [
    {
      "children": [
        1
      ],
      "name": "RootNode (gltf orientation matrix)",
      "rotation": [
        -0.70710678118654746,
        -0,
        -0,
        0.70710678118654757
      ]
    },
    {
      "children": [
        2
      ],
      "name": "RootNode (model correction matrix)"
    },
    {
      "children": [
        3
      ],
      "matrix": [
        1,
        0,
        0,
        0,
        0,
        0,
        1,
        0,
        0,
        -1,
        0,
        0,
        0,
        0,
        0,
        1
      ],
      "name": "9229e092dd3d4716b9b655139c567a83.fbx"
    },
    {
      "children": [
        4
      ],
      "name": "RootNode"
    },
    {
      "children": [
        5,
        6,
        7,
        8,
        9,
        10
      ],
      "matrix": [
        1,
        0,
        0,
        0,
        0,
        2.2204460492503131e-16,
        -1,
        0,
        0,
        1,
        2.2204460492503131e-16,
        0,
        -0.20593070983886719,
        17.394287109375,
        -5.9870133399963379,
        1
      ],
      "name": ""
    },
    {
      "mesh": 0,
      "name": "_Material #107_0"
    },
    {
      "mesh": 1,
      "name": "_Material #106_0"
    },
    {
      "mesh": 2,
      "name": "_Material #130_0"
    },
    {
      "mesh": 3,
      "name": "_Material #278_0"
    },
    {
      "mesh": 4,
      "name": "_Material #253_0"
    },
    {
      "mesh": 5,
      "name": "_Material #26_0"
    }
  ],
  "samplers": [
    {
      "magFilter": 9729,
      "minFilter": 9987,
      "wrapS": 10497,
      "wrapT": 10497
    }
  ],
  "scene": 0,
  "scenes": [
    {
      "name": "OSG_Scene",
      "nodes": [
        0
      ]
    }
  ],
  "textures": [
    {
      "sampler": 0,
      "source": 0
    },
    {
      "sampler": 0,
      "source": 1
    },
    {
      "sampler": 0,
      "source": 2
    },
    {
      "sampler": 0,
      "source": 3
    },
    {
      "sampler": 0,
      "source": 4
    },
    {
      "sampler": 0,
      "source": 5
    },
    {
      "sampler": 0,
      "source": 6
    }
  ]
}

